<?xml version="1.0" encoding="UTF-8" standalone="no"?>
<!DOCTYPE svg PUBLIC "-//W3C//DTD SVG 1.1//EN"
 "http://www.w3.org/Graphics/SVG/1.1/DTD/svg11.dtd">
<!-- Generated by graphviz version 2.43.0 (0)
 -->
<!-- Title: G Pages: 1 -->
<svg width="1032pt" height="476pt"
 viewBox="0.00 0.00 1032.49 476.00" xmlns="http://www.w3.org/2000/svg" xmlns:xlink="http://www.w3.org/1999/xlink">
<g id="graph0" class="graph" transform="scale(1 1) rotate(0) translate(4 472)">
<title>G</title>
<polygon fill="white" stroke="transparent" points="-4,4 -4,-472 1028.49,-472 1028.49,4 -4,4"/>
<!-- z924844032i1 -->
<g id="node1" class="node">
<title>z924844032i1</title>
<ellipse fill="none" stroke="#00b2ee" cx="220.74" cy="-450" rx="74.99" ry="18"/>
<text text-anchor="middle" x="220.74" y="-446.3" font-family="Times,serif" font-size="14.00">b0x37200000</text>
</g>
<!-- z926941184i1s14 -->
<g id="node2" class="node">
<title>z926941184i1s14</title>
<ellipse fill="none" stroke="#66cd00" cx="74.74" cy="-378" rx="74.99" ry="18"/>
<text text-anchor="middle" x="74.74" y="-374.3" font-family="Times,serif" font-size="14.00">b0x37400000</text>
</g>
<!-- z924844032i1&#45;&gt;z926941184i1s14 -->
<g id="edge1" class="edge">
<title>z924844032i1&#45;&gt;z926941184i1s14</title>
<path fill="none" stroke="black" d="M188.7,-433.64C167.31,-423.38 138.97,-409.79 115.91,-398.74"/>
<polygon fill="black" stroke="black" points="117.24,-395.49 106.71,-394.33 114.21,-401.81 117.24,-395.49"/>
</g>
<!-- z926942208i1s15 -->
<g id="node21" class="node">
<title>z926942208i1s15</title>
<ellipse fill="none" stroke="#66cd00" cx="241.74" cy="-378" rx="74.99" ry="18"/>
<text text-anchor="middle" x="241.74" y="-374.3" font-family="Times,serif" font-size="14.00">b0x37400400</text>
</g>
<!-- z924844032i1&#45;&gt;z926942208i1s15 -->
<g id="edge17" class="edge">
<title>z924844032i1&#45;&gt;z926942208i1s15</title>
<path fill="none" stroke="black" d="M225.93,-431.7C228.27,-423.9 231.09,-414.51 233.69,-405.83"/>
<polygon fill="black" stroke="black" points="237.09,-406.69 236.61,-396.1 230.39,-404.68 237.09,-406.69"/>
</g>
<!-- k4 -->
<g id="node3" class="node">
<title>k4</title>
<polygon fill="none" stroke="#458b00" points="101.74,-324 47.74,-324 47.74,-288 101.74,-288 101.74,-324"/>
<text text-anchor="middle" x="74.74" y="-302.3" font-family="Times,serif" font-size="14.00">k4</text>
</g>
<!-- z926941184i1s14&#45;&gt;k4 -->
<g id="edge2" class="edge">
<title>z926941184i1s14&#45;&gt;k4</title>
<path fill="none" stroke="black" d="M74.74,-359.7C74.74,-351.98 74.74,-342.71 74.74,-334.11"/>
<polygon fill="black" stroke="black" points="78.24,-334.1 74.74,-324.1 71.24,-334.1 78.24,-334.1"/>
</g>
<!-- z926941696i1s14 -->
<g id="node4" class="node">
<title>z926941696i1s14</title>
<ellipse fill="none" stroke="#66cd00" cx="74.74" cy="-234" rx="74.99" ry="18"/>
<text text-anchor="middle" x="74.74" y="-230.3" font-family="Times,serif" font-size="14.00">b0x37400200</text>
</g>
<!-- k4&#45;&gt;z926941696i1s14 -->
<g id="edge3" class="edge">
<title>k4&#45;&gt;z926941696i1s14</title>
<path fill="none" stroke="black" d="M74.74,-287.7C74.74,-279.98 74.74,-270.71 74.74,-262.11"/>
<polygon fill="black" stroke="black" points="78.24,-262.1 74.74,-252.1 71.24,-262.1 78.24,-262.1"/>
</g>
<!-- z924844032i2 -->
<g id="node5" class="node">
<title>z924844032i2</title>
<ellipse fill="none" stroke="#00b2ee" cx="74.74" cy="-162" rx="74.99" ry="18"/>
<text text-anchor="middle" x="74.74" y="-158.3" font-family="Times,serif" font-size="14.00">b0x37200000</text>
</g>
<!-- z926941696i1s14&#45;&gt;z924844032i2 -->
<g id="edge4" class="edge">
<title>z926941696i1s14&#45;&gt;z924844032i2</title>
<path fill="none" stroke="black" d="M74.74,-215.7C74.74,-207.98 74.74,-198.71 74.74,-190.11"/>
<polygon fill="black" stroke="black" points="78.24,-190.1 74.74,-180.1 71.24,-190.1 78.24,-190.1"/>
</g>
<!-- z926943744i1s15 -->
<g id="node23" class="node">
<title>z926943744i1s15</title>
<ellipse fill="none" stroke="#66cd00" cx="74.74" cy="-90" rx="74.19" ry="18"/>
<text text-anchor="middle" x="74.74" y="-86.3" font-family="Times,serif" font-size="14.00">b0x37400a00</text>
</g>
<!-- z924844032i2&#45;&gt;z926943744i1s15 -->
<g id="edge19" class="edge">
<title>z924844032i2&#45;&gt;z926943744i1s15</title>
<path fill="none" stroke="black" d="M74.74,-143.7C74.74,-135.98 74.74,-126.71 74.74,-118.11"/>
<polygon fill="black" stroke="black" points="78.24,-118.1 74.74,-108.1 71.24,-118.1 78.24,-118.1"/>
</g>
<!-- z924844032i3 -->
<g id="node6" class="node">
<title>z924844032i3</title>
<ellipse fill="none" stroke="#00b2ee" cx="470.74" cy="-450" rx="74.99" ry="18"/>
<text text-anchor="middle" x="470.74" y="-446.3" font-family="Times,serif" font-size="14.00">b0x37200000</text>
</g>
<!-- z926942720i1s14 -->
<g id="node7" class="node">
<title>z926942720i1s14</title>
<ellipse fill="none" stroke="#66cd00" cx="449.74" cy="-378" rx="74.99" ry="18"/>
<text text-anchor="middle" x="449.74" y="-374.3" font-family="Times,serif" font-size="14.00">b0x37400600</text>
</g>
<!-- z924844032i3&#45;&gt;z926942720i1s14 -->
<g id="edge5" class="edge">
<title>z924844032i3&#45;&gt;z926942720i1s14</title>
<path fill="none" stroke="black" d="M465.55,-431.7C463.21,-423.9 460.4,-414.51 457.79,-405.83"/>
<polygon fill="black" stroke="black" points="461.1,-404.68 454.87,-396.1 454.4,-406.69 461.1,-404.68"/>
</g>
<!-- z926945280i1s15 -->
<g id="node25" class="node">
<title>z926945280i1s15</title>
<ellipse fill="none" stroke="#66cd00" cx="616.74" cy="-378" rx="74.99" ry="18"/>
<text text-anchor="middle" x="616.74" y="-374.3" font-family="Times,serif" font-size="14.00">b0x37401000</text>
</g>
<!-- z924844032i3&#45;&gt;z926945280i1s15 -->
<g id="edge21" class="edge">
<title>z924844032i3&#45;&gt;z926945280i1s15</title>
<path fill="none" stroke="black" d="M502.78,-433.64C524.18,-423.38 552.51,-409.79 575.58,-398.74"/>
<polygon fill="black" stroke="black" points="577.27,-401.81 584.78,-394.33 574.25,-395.49 577.27,-401.81"/>
</g>
<!-- k11 -->
<g id="node8" class="node">
<title>k11</title>
<polygon fill="none" stroke="#458b00" points="476.74,-324 422.74,-324 422.74,-288 476.74,-288 476.74,-324"/>
<text text-anchor="middle" x="449.74" y="-302.3" font-family="Times,serif" font-size="14.00">k11</text>
</g>
<!-- z926942720i1s14&#45;&gt;k11 -->
<g id="edge6" class="edge">
<title>z926942720i1s14&#45;&gt;k11</title>
<path fill="none" stroke="black" d="M449.74,-359.7C449.74,-351.98 449.74,-342.71 449.74,-334.11"/>
<polygon fill="black" stroke="black" points="453.24,-334.1 449.74,-324.1 446.24,-334.1 453.24,-334.1"/>
</g>
<!-- z926943232i1s14 -->
<g id="node9" class="node">
<title>z926943232i1s14</title>
<ellipse fill="none" stroke="#66cd00" cx="449.74" cy="-234" rx="74.99" ry="18"/>
<text text-anchor="middle" x="449.74" y="-230.3" font-family="Times,serif" font-size="14.00">b0x37400800</text>
</g>
<!-- k11&#45;&gt;z926943232i1s14 -->
<g id="edge7" class="edge">
<title>k11&#45;&gt;z926943232i1s14</title>
<path fill="none" stroke="black" d="M449.74,-287.7C449.74,-279.98 449.74,-270.71 449.74,-262.11"/>
<polygon fill="black" stroke="black" points="453.24,-262.1 449.74,-252.1 446.24,-262.1 453.24,-262.1"/>
</g>
<!-- z924844032i4 -->
<g id="node10" class="node">
<title>z924844032i4</title>
<ellipse fill="none" stroke="#00b2ee" cx="449.74" cy="-162" rx="74.99" ry="18"/>
<text text-anchor="middle" x="449.74" y="-158.3" font-family="Times,serif" font-size="14.00">b0x37200000</text>
</g>
<!-- z926943232i1s14&#45;&gt;z924844032i4 -->
<g id="edge8" class="edge">
<title>z926943232i1s14&#45;&gt;z924844032i4</title>
<path fill="none" stroke="black" d="M449.74,-215.7C449.74,-207.98 449.74,-198.71 449.74,-190.11"/>
<polygon fill="black" stroke="black" points="453.24,-190.1 449.74,-180.1 446.24,-190.1 453.24,-190.1"/>
</g>
<!-- z926946816i1s15 -->
<g id="node27" class="node">
<title>z926946816i1s15</title>
<ellipse fill="none" stroke="#66cd00" cx="449.74" cy="-90" rx="74.99" ry="18"/>
<text text-anchor="middle" x="449.74" y="-86.3" font-family="Times,serif" font-size="14.00">b0x37401600</text>
</g>
<!-- z924844032i4&#45;&gt;z926946816i1s15 -->
<g id="edge23" class="edge">
<title>z924844032i4&#45;&gt;z926946816i1s15</title>
<path fill="none" stroke="black" d="M449.74,-143.7C449.74,-135.98 449.74,-126.71 449.74,-118.11"/>
<polygon fill="black" stroke="black" points="453.24,-118.1 449.74,-108.1 446.24,-118.1 453.24,-118.1"/>
</g>
<!-- z924844032i5 -->
<g id="node11" class="node">
<title>z924844032i5</title>
<ellipse fill="none" stroke="#00b2ee" cx="782.74" cy="-450" rx="74.99" ry="18"/>
<text text-anchor="middle" x="782.74" y="-446.3" font-family="Times,serif" font-size="14.00">b0x37200000</text>
</g>
<!-- z926944256i1s14 -->
<g id="node12" class="node">
<title>z926944256i1s14</title>
<ellipse fill="none" stroke="#66cd00" cx="782.74" cy="-378" rx="73.39" ry="18"/>
<text text-anchor="middle" x="782.74" y="-374.3" font-family="Times,serif" font-size="14.00">b0x37400c00</text>
</g>
<!-- z924844032i5&#45;&gt;z926944256i1s14 -->
<g id="edge9" class="edge">
<title>z924844032i5&#45;&gt;z926944256i1s14</title>
<path fill="none" stroke="black" d="M782.74,-431.7C782.74,-423.98 782.74,-414.71 782.74,-406.11"/>
<polygon fill="black" stroke="black" points="786.24,-406.1 782.74,-396.1 779.24,-406.1 786.24,-406.1"/>
</g>
<!-- k18 -->
<g id="node13" class="node">
<title>k18</title>
<polygon fill="none" stroke="#458b00" points="809.74,-324 755.74,-324 755.74,-288 809.74,-288 809.74,-324"/>
<text text-anchor="middle" x="782.74" y="-302.3" font-family="Times,serif" font-size="14.00">k18</text>
</g>
<!-- z926944256i1s14&#45;&gt;k18 -->
<g id="edge10" class="edge">
<title>z926944256i1s14&#45;&gt;k18</title>
<path fill="none" stroke="black" d="M782.74,-359.7C782.74,-351.98 782.74,-342.71 782.74,-334.11"/>
<polygon fill="black" stroke="black" points="786.24,-334.1 782.74,-324.1 779.24,-334.1 786.24,-334.1"/>
</g>
<!-- z926944768i1s14 -->
<g id="node14" class="node">
<title>z926944768i1s14</title>
<ellipse fill="none" stroke="#66cd00" cx="782.74" cy="-234" rx="74.19" ry="18"/>
<text text-anchor="middle" x="782.74" y="-230.3" font-family="Times,serif" font-size="14.00">b0x37400e00</text>
</g>
<!-- k18&#45;&gt;z926944768i1s14 -->
<g id="edge11" class="edge">
<title>k18&#45;&gt;z926944768i1s14</title>
<path fill="none" stroke="black" d="M782.74,-287.7C782.74,-279.98 782.74,-270.71 782.74,-262.11"/>
<polygon fill="black" stroke="black" points="786.24,-262.1 782.74,-252.1 779.24,-262.1 786.24,-262.1"/>
</g>
<!-- z924844032i6 -->
<g id="node15" class="node">
<title>z924844032i6</title>
<ellipse fill="none" stroke="#00b2ee" cx="782.74" cy="-162" rx="74.99" ry="18"/>
<text text-anchor="middle" x="782.74" y="-158.3" font-family="Times,serif" font-size="14.00">b0x37200000</text>
</g>
<!-- z926944768i1s14&#45;&gt;z924844032i6 -->
<g id="edge12" class="edge">
<title>z926944768i1s14&#45;&gt;z924844032i6</title>
<path fill="none" stroke="black" d="M782.74,-215.7C782.74,-207.98 782.74,-198.71 782.74,-190.11"/>
<polygon fill="black" stroke="black" points="786.24,-190.1 782.74,-180.1 779.24,-190.1 786.24,-190.1"/>
</g>
<!-- z924844032i7 -->
<g id="node16" class="node">
<title>z924844032i7</title>
<ellipse fill="none" stroke="#00b2ee" cx="949.74" cy="-450" rx="74.99" ry="18"/>
<text text-anchor="middle" x="949.74" y="-446.3" font-family="Times,serif" font-size="14.00">b0x37200000</text>
</g>
<!-- z926945792i1s14 -->
<g id="node17" class="node">
<title>z926945792i1s14</title>
<ellipse fill="none" stroke="#66cd00" cx="949.74" cy="-378" rx="74.99" ry="18"/>
<text text-anchor="middle" x="949.74" y="-374.3" font-family="Times,serif" font-size="14.00">b0x37401200</text>
</g>
<!-- z924844032i7&#45;&gt;z926945792i1s14 -->
<g id="edge13" class="edge">
<title>z924844032i7&#45;&gt;z926945792i1s14</title>
<path fill="none" stroke="black" d="M949.74,-431.7C949.74,-423.98 949.74,-414.71 949.74,-406.11"/>
<polygon fill="black" stroke="black" points="953.24,-406.1 949.74,-396.1 946.24,-406.1 953.24,-406.1"/>
</g>
<!-- k25 -->
<g id="node18" class="node">
<title>k25</title>
<polygon fill="none" stroke="#458b00" points="976.74,-324 922.74,-324 922.74,-288 976.74,-288 976.74,-324"/>
<text text-anchor="middle" x="949.74" y="-302.3" font-family="Times,serif" font-size="14.00">k25</text>
</g>
<!-- z926945792i1s14&#45;&gt;k25 -->
<g id="edge14" class="edge">
<title>z926945792i1s14&#45;&gt;k25</title>
<path fill="none" stroke="black" d="M949.74,-359.7C949.74,-351.98 949.74,-342.71 949.74,-334.11"/>
<polygon fill="black" stroke="black" points="953.24,-334.1 949.74,-324.1 946.24,-334.1 953.24,-334.1"/>
</g>
<!-- z926946304i1s14 -->
<g id="node19" class="node">
<title>z926946304i1s14</title>
<ellipse fill="none" stroke="#66cd00" cx="949.74" cy="-234" rx="74.99" ry="18"/>
<text text-anchor="middle" x="949.74" y="-230.3" font-family="Times,serif" font-size="14.00">b0x37401400</text>
</g>
<!-- k25&#45;&gt;z926946304i1s14 -->
<g id="edge15" class="edge">
<title>k25&#45;&gt;z926946304i1s14</title>
<path fill="none" stroke="black" d="M949.74,-287.7C949.74,-279.98 949.74,-270.71 949.74,-262.11"/>
<polygon fill="black" stroke="black" points="953.24,-262.1 949.74,-252.1 946.24,-262.1 953.24,-262.1"/>
</g>
<!-- z924844032i8 -->
<g id="node20" class="node">
<title>z924844032i8</title>
<ellipse fill="none" stroke="#00b2ee" cx="949.74" cy="-162" rx="74.99" ry="18"/>
<text text-anchor="middle" x="949.74" y="-158.3" font-family="Times,serif" font-size="14.00">b0x37200000</text>
</g>
<!-- z926946304i1s14&#45;&gt;z924844032i8 -->
<g id="edge16" class="edge">
<title>z926946304i1s14&#45;&gt;z924844032i8</title>
<path fill="none" stroke="black" d="M949.74,-215.7C949.74,-207.98 949.74,-198.71 949.74,-190.11"/>
<polygon fill="black" stroke="black" points="953.24,-190.1 949.74,-180.1 946.24,-190.1 953.24,-190.1"/>
</g>
<!-- k8 -->
<g id="node22" class="node">
<title>k8</title>
<polygon fill="none" stroke="#458b00" points="268.74,-324 214.74,-324 214.74,-288 268.74,-288 268.74,-324"/>
<text text-anchor="middle" x="241.74" y="-302.3" font-family="Times,serif" font-size="14.00">k8</text>
</g>
<!-- z926942208i1s15&#45;&gt;k8 -->
<g id="edge18" class="edge">
<title>z926942208i1s15&#45;&gt;k8</title>
<path fill="none" stroke="black" d="M241.74,-359.7C241.74,-351.98 241.74,-342.71 241.74,-334.11"/>
<polygon fill="black" stroke="black" points="245.24,-334.1 241.74,-324.1 238.24,-334.1 245.24,-334.1"/>
</g>
<!-- k15 -->
<g id="node24" class="node">
<title>k15</title>
<polygon fill="none" stroke="#458b00" points="101.74,-36 47.74,-36 47.74,0 101.74,0 101.74,-36"/>
<text text-anchor="middle" x="74.74" y="-14.3" font-family="Times,serif" font-size="14.00">k15</text>
</g>
<!-- z926943744i1s15&#45;&gt;k15 -->
<g id="edge20" class="edge">
<title>z926943744i1s15&#45;&gt;k15</title>
<path fill="none" stroke="black" d="M74.74,-71.7C74.74,-63.98 74.74,-54.71 74.74,-46.11"/>
<polygon fill="black" stroke="black" points="78.24,-46.1 74.74,-36.1 71.24,-46.1 78.24,-46.1"/>
</g>
<!-- k22 -->
<g id="node26" class="node">
<title>k22</title>
<polygon fill="none" stroke="#458b00" points="643.74,-324 589.74,-324 589.74,-288 643.74,-288 643.74,-324"/>
<text text-anchor="middle" x="616.74" y="-302.3" font-family="Times,serif" font-size="14.00">k22</text>
</g>
<!-- z926945280i1s15&#45;&gt;k22 -->
<g id="edge22" class="edge">
<title>z926945280i1s15&#45;&gt;k22</title>
<path fill="none" stroke="black" d="M616.74,-359.7C616.74,-351.98 616.74,-342.71 616.74,-334.11"/>
<polygon fill="black" stroke="black" points="620.24,-334.1 616.74,-324.1 613.24,-334.1 620.24,-334.1"/>
</g>
<!-- k29 -->
<g id="node28" class="node">
<title>k29</title>
<polygon fill="none" stroke="#458b00" points="476.74,-36 422.74,-36 422.74,0 476.74,0 476.74,-36"/>
<text text-anchor="middle" x="449.74" y="-14.3" font-family="Times,serif" font-size="14.00">k29</text>
</g>
<!-- z926946816i1s15&#45;&gt;k29 -->
<g id="edge24" class="edge">
<title>z926946816i1s15&#45;&gt;k29</title>
<path fill="none" stroke="black" d="M449.74,-71.7C449.74,-63.98 449.74,-54.71 449.74,-46.11"/>
<polygon fill="black" stroke="black" points="453.24,-46.1 449.74,-36.1 446.24,-46.1 453.24,-46.1"/>
</g>
</g>
</svg>
