<?xml version="1.0" encoding="UTF-8" standalone="no"?>
<!DOCTYPE svg PUBLIC "-//W3C//DTD SVG 1.1//EN"
 "http://www.w3.org/Graphics/SVG/1.1/DTD/svg11.dtd">
<!-- Generated by graphviz version 2.43.0 (0)
 -->
<!-- Title: testtracesv2 Pages: 1 -->
<svg width="157pt" height="1196pt"
 viewBox="0.00 0.00 157.49 1196.00" xmlns="http://www.w3.org/2000/svg" xmlns:xlink="http://www.w3.org/1999/xlink">
<g id="graph0" class="graph" transform="scale(1 1) rotate(0) translate(4 1192)">
<title>testtracesv2</title>
<polygon fill="white" stroke="transparent" points="-4,4 -4,-1192 153.49,-1192 153.49,4 -4,4"/>
<!-- z4150717680i0 -->
<g id="node1" class="node">
<title>z4150717680i0</title>
<ellipse fill="none" stroke="#00b2ee" cx="74.74" cy="-1170" rx="68.49" ry="18"/>
<text text-anchor="middle" x="74.74" y="-1166.3" font-family="Times,serif" font-size="14.00">b0xf766ecf0</text>
</g>
<!-- z3508535296i1s7 -->
<g id="node2" class="node">
<title>z3508535296i1s7</title>
<ellipse fill="none" stroke="#66cd00" cx="74.74" cy="-1098" rx="74.99" ry="18"/>
<text text-anchor="middle" x="74.74" y="-1094.3" font-family="Times,serif" font-size="14.00">b0xd1200000</text>
</g>
<!-- z4150717680i0&#45;&gt;z3508535296i1s7 -->
<g id="edge1" class="edge">
<title>z4150717680i0&#45;&gt;z3508535296i1s7</title>
<path fill="none" stroke="black" d="M74.74,-1151.7C74.74,-1143.98 74.74,-1134.71 74.74,-1126.11"/>
<polygon fill="black" stroke="black" points="78.24,-1126.1 74.74,-1116.1 71.24,-1126.1 78.24,-1126.1"/>
</g>
<!-- k2 -->
<g id="node3" class="node">
<title>k2</title>
<polygon fill="none" stroke="#458b00" points="101.74,-1044 47.74,-1044 47.74,-1008 101.74,-1008 101.74,-1044"/>
<text text-anchor="middle" x="74.74" y="-1022.3" font-family="Times,serif" font-size="14.00">k2</text>
</g>
<!-- z3508535296i1s7&#45;&gt;k2 -->
<g id="edge2" class="edge">
<title>z3508535296i1s7&#45;&gt;k2</title>
<path fill="none" stroke="black" d="M74.74,-1079.7C74.74,-1071.98 74.74,-1062.71 74.74,-1054.11"/>
<polygon fill="black" stroke="black" points="78.24,-1054.1 74.74,-1044.1 71.24,-1054.1 78.24,-1054.1"/>
</g>
<!-- z3508535808i1s7 -->
<g id="node4" class="node">
<title>z3508535808i1s7</title>
<ellipse fill="none" stroke="#66cd00" cx="74.74" cy="-954" rx="74.99" ry="18"/>
<text text-anchor="middle" x="74.74" y="-950.3" font-family="Times,serif" font-size="14.00">b0xd1200200</text>
</g>
<!-- k2&#45;&gt;z3508535808i1s7 -->
<g id="edge3" class="edge">
<title>k2&#45;&gt;z3508535808i1s7</title>
<path fill="none" stroke="black" d="M74.74,-1007.7C74.74,-999.98 74.74,-990.71 74.74,-982.11"/>
<polygon fill="black" stroke="black" points="78.24,-982.1 74.74,-972.1 71.24,-982.1 78.24,-982.1"/>
</g>
<!-- z4150717680i1 -->
<g id="node5" class="node">
<title>z4150717680i1</title>
<ellipse fill="none" stroke="#00b2ee" cx="74.74" cy="-882" rx="68.49" ry="18"/>
<text text-anchor="middle" x="74.74" y="-878.3" font-family="Times,serif" font-size="14.00">b0xf766ecf0</text>
</g>
<!-- z3508535808i1s7&#45;&gt;z4150717680i1 -->
<g id="edge4" class="edge">
<title>z3508535808i1s7&#45;&gt;z4150717680i1</title>
<path fill="none" stroke="black" d="M74.74,-935.7C74.74,-927.98 74.74,-918.71 74.74,-910.11"/>
<polygon fill="black" stroke="black" points="78.24,-910.1 74.74,-900.1 71.24,-910.1 78.24,-910.1"/>
</g>
<!-- z3508536320i1s7 -->
<g id="node6" class="node">
<title>z3508536320i1s7</title>
<ellipse fill="none" stroke="#66cd00" cx="74.74" cy="-810" rx="74.99" ry="18"/>
<text text-anchor="middle" x="74.74" y="-806.3" font-family="Times,serif" font-size="14.00">b0xd1200400</text>
</g>
<!-- z4150717680i1&#45;&gt;z3508536320i1s7 -->
<g id="edge5" class="edge">
<title>z4150717680i1&#45;&gt;z3508536320i1s7</title>
<path fill="none" stroke="black" d="M74.74,-863.7C74.74,-855.98 74.74,-846.71 74.74,-838.11"/>
<polygon fill="black" stroke="black" points="78.24,-838.1 74.74,-828.1 71.24,-838.1 78.24,-838.1"/>
</g>
<!-- k6 -->
<g id="node7" class="node">
<title>k6</title>
<polygon fill="none" stroke="#458b00" points="101.74,-756 47.74,-756 47.74,-720 101.74,-720 101.74,-756"/>
<text text-anchor="middle" x="74.74" y="-734.3" font-family="Times,serif" font-size="14.00">k6</text>
</g>
<!-- z3508536320i1s7&#45;&gt;k6 -->
<g id="edge6" class="edge">
<title>z3508536320i1s7&#45;&gt;k6</title>
<path fill="none" stroke="black" d="M74.74,-791.7C74.74,-783.98 74.74,-774.71 74.74,-766.11"/>
<polygon fill="black" stroke="black" points="78.24,-766.1 74.74,-756.1 71.24,-766.1 78.24,-766.1"/>
</g>
<!-- z3508536832i1s7 -->
<g id="node8" class="node">
<title>z3508536832i1s7</title>
<ellipse fill="none" stroke="#66cd00" cx="74.74" cy="-666" rx="74.99" ry="18"/>
<text text-anchor="middle" x="74.74" y="-662.3" font-family="Times,serif" font-size="14.00">b0xd1200600</text>
</g>
<!-- k6&#45;&gt;z3508536832i1s7 -->
<g id="edge7" class="edge">
<title>k6&#45;&gt;z3508536832i1s7</title>
<path fill="none" stroke="black" d="M74.74,-719.7C74.74,-711.98 74.74,-702.71 74.74,-694.11"/>
<polygon fill="black" stroke="black" points="78.24,-694.1 74.74,-684.1 71.24,-694.1 78.24,-694.1"/>
</g>
<!-- z4150717680i2 -->
<g id="node9" class="node">
<title>z4150717680i2</title>
<ellipse fill="none" stroke="#00b2ee" cx="74.74" cy="-594" rx="68.49" ry="18"/>
<text text-anchor="middle" x="74.74" y="-590.3" font-family="Times,serif" font-size="14.00">b0xf766ecf0</text>
</g>
<!-- z3508536832i1s7&#45;&gt;z4150717680i2 -->
<g id="edge8" class="edge">
<title>z3508536832i1s7&#45;&gt;z4150717680i2</title>
<path fill="none" stroke="black" d="M74.74,-647.7C74.74,-639.98 74.74,-630.71 74.74,-622.11"/>
<polygon fill="black" stroke="black" points="78.24,-622.1 74.74,-612.1 71.24,-622.1 78.24,-622.1"/>
</g>
<!-- z3508537344i1s7 -->
<g id="node10" class="node">
<title>z3508537344i1s7</title>
<ellipse fill="none" stroke="#66cd00" cx="74.74" cy="-522" rx="74.99" ry="18"/>
<text text-anchor="middle" x="74.74" y="-518.3" font-family="Times,serif" font-size="14.00">b0xd1200800</text>
</g>
<!-- z4150717680i2&#45;&gt;z3508537344i1s7 -->
<g id="edge9" class="edge">
<title>z4150717680i2&#45;&gt;z3508537344i1s7</title>
<path fill="none" stroke="black" d="M74.74,-575.7C74.74,-567.98 74.74,-558.71 74.74,-550.11"/>
<polygon fill="black" stroke="black" points="78.24,-550.1 74.74,-540.1 71.24,-550.1 78.24,-550.1"/>
</g>
<!-- k10 -->
<g id="node11" class="node">
<title>k10</title>
<polygon fill="none" stroke="#458b00" points="101.74,-468 47.74,-468 47.74,-432 101.74,-432 101.74,-468"/>
<text text-anchor="middle" x="74.74" y="-446.3" font-family="Times,serif" font-size="14.00">k10</text>
</g>
<!-- z3508537344i1s7&#45;&gt;k10 -->
<g id="edge10" class="edge">
<title>z3508537344i1s7&#45;&gt;k10</title>
<path fill="none" stroke="black" d="M74.74,-503.7C74.74,-495.98 74.74,-486.71 74.74,-478.11"/>
<polygon fill="black" stroke="black" points="78.24,-478.1 74.74,-468.1 71.24,-478.1 78.24,-478.1"/>
</g>
<!-- z3508537856i1s7 -->
<g id="node12" class="node">
<title>z3508537856i1s7</title>
<ellipse fill="none" stroke="#66cd00" cx="74.74" cy="-378" rx="74.19" ry="18"/>
<text text-anchor="middle" x="74.74" y="-374.3" font-family="Times,serif" font-size="14.00">b0xd1200a00</text>
</g>
<!-- k10&#45;&gt;z3508537856i1s7 -->
<g id="edge11" class="edge">
<title>k10&#45;&gt;z3508537856i1s7</title>
<path fill="none" stroke="black" d="M74.74,-431.7C74.74,-423.98 74.74,-414.71 74.74,-406.11"/>
<polygon fill="black" stroke="black" points="78.24,-406.1 74.74,-396.1 71.24,-406.1 78.24,-406.1"/>
</g>
<!-- z4150717680i3 -->
<g id="node13" class="node">
<title>z4150717680i3</title>
<ellipse fill="none" stroke="#00b2ee" cx="74.74" cy="-306" rx="68.49" ry="18"/>
<text text-anchor="middle" x="74.74" y="-302.3" font-family="Times,serif" font-size="14.00">b0xf766ecf0</text>
</g>
<!-- z3508537856i1s7&#45;&gt;z4150717680i3 -->
<g id="edge12" class="edge">
<title>z3508537856i1s7&#45;&gt;z4150717680i3</title>
<path fill="none" stroke="black" d="M74.74,-359.7C74.74,-351.98 74.74,-342.71 74.74,-334.11"/>
<polygon fill="black" stroke="black" points="78.24,-334.1 74.74,-324.1 71.24,-334.1 78.24,-334.1"/>
</g>
<!-- z3508538368i1s7 -->
<g id="node14" class="node">
<title>z3508538368i1s7</title>
<ellipse fill="none" stroke="#66cd00" cx="74.74" cy="-234" rx="73.39" ry="18"/>
<text text-anchor="middle" x="74.74" y="-230.3" font-family="Times,serif" font-size="14.00">b0xd1200c00</text>
</g>
<!-- z4150717680i3&#45;&gt;z3508538368i1s7 -->
<g id="edge13" class="edge">
<title>z4150717680i3&#45;&gt;z3508538368i1s7</title>
<path fill="none" stroke="black" d="M74.74,-287.7C74.74,-279.98 74.74,-270.71 74.74,-262.11"/>
<polygon fill="black" stroke="black" points="78.24,-262.1 74.74,-252.1 71.24,-262.1 78.24,-262.1"/>
</g>
<!-- k14 -->
<g id="node15" class="node">
<title>k14</title>
<polygon fill="none" stroke="#458b00" points="101.74,-180 47.74,-180 47.74,-144 101.74,-144 101.74,-180"/>
<text text-anchor="middle" x="74.74" y="-158.3" font-family="Times,serif" font-size="14.00">k14</text>
</g>
<!-- z3508538368i1s7&#45;&gt;k14 -->
<g id="edge14" class="edge">
<title>z3508538368i1s7&#45;&gt;k14</title>
<path fill="none" stroke="black" d="M74.74,-215.7C74.74,-207.98 74.74,-198.71 74.74,-190.11"/>
<polygon fill="black" stroke="black" points="78.24,-190.1 74.74,-180.1 71.24,-190.1 78.24,-190.1"/>
</g>
<!-- z3508538880i1s7 -->
<g id="node16" class="node">
<title>z3508538880i1s7</title>
<ellipse fill="none" stroke="#66cd00" cx="74.74" cy="-90" rx="74.19" ry="18"/>
<text text-anchor="middle" x="74.74" y="-86.3" font-family="Times,serif" font-size="14.00">b0xd1200e00</text>
</g>
<!-- k14&#45;&gt;z3508538880i1s7 -->
<g id="edge15" class="edge">
<title>k14&#45;&gt;z3508538880i1s7</title>
<path fill="none" stroke="black" d="M74.74,-143.7C74.74,-135.98 74.74,-126.71 74.74,-118.11"/>
<polygon fill="black" stroke="black" points="78.24,-118.1 74.74,-108.1 71.24,-118.1 78.24,-118.1"/>
</g>
<!-- z4150717680i4 -->
<g id="node17" class="node">
<title>z4150717680i4</title>
<ellipse fill="none" stroke="#00b2ee" cx="74.74" cy="-18" rx="68.49" ry="18"/>
<text text-anchor="middle" x="74.74" y="-14.3" font-family="Times,serif" font-size="14.00">b0xf766ecf0</text>
</g>
<!-- z3508538880i1s7&#45;&gt;z4150717680i4 -->
<g id="edge16" class="edge">
<title>z3508538880i1s7&#45;&gt;z4150717680i4</title>
<path fill="none" stroke="black" d="M74.74,-71.7C74.74,-63.98 74.74,-54.71 74.74,-46.11"/>
<polygon fill="black" stroke="black" points="78.24,-46.1 74.74,-36.1 71.24,-46.1 78.24,-46.1"/>
</g>
</g>
</svg>
