<?xml version="1.0" encoding="UTF-8" standalone="no"?>
<!DOCTYPE svg PUBLIC "-//W3C//DTD SVG 1.1//EN"
 "http://www.w3.org/Graphics/SVG/1.1/DTD/svg11.dtd">
<!-- Generated by graphviz version 2.43.0 (0)
 -->
<!-- Title: G Pages: 1 -->
<svg width="486pt" height="188pt"
 viewBox="0.00 0.00 486.19 188.00" xmlns="http://www.w3.org/2000/svg" xmlns:xlink="http://www.w3.org/1999/xlink">
<g id="graph0" class="graph" transform="scale(1 1) rotate(0) translate(4 184)">
<title>G</title>
<polygon fill="white" stroke="transparent" points="-4,4 -4,-184 482.19,-184 482.19,4 -4,4"/>
<!-- a3556765712i0 -->
<g id="node1" class="node">
<title>a3556765712i0</title>
<ellipse fill="none" stroke="#00b2ee" cx="156.44" cy="-162" rx="66.89" ry="18"/>
<text text-anchor="middle" x="156.44" y="-158.3" font-family="Times,serif" font-size="14.00">b0xd3fff010</text>
</g>
<!-- a3456106496i0 -->
<g id="node2" class="node">
<title>a3456106496i0</title>
<ellipse fill="none" stroke="#66cd00" cx="73.44" cy="-90" rx="73.39" ry="18"/>
<text text-anchor="middle" x="73.44" y="-86.3" font-family="Times,serif" font-size="14.00">b0xce000000</text>
</g>
<!-- a3556765712i0&#45;&gt;a3456106496i0 -->
<g id="edge1" class="edge">
<title>a3556765712i0&#45;&gt;a3456106496i0</title>
<path fill="none" stroke="black" d="M136.77,-144.41C126.02,-135.34 112.54,-123.97 100.78,-114.06"/>
<polygon fill="black" stroke="black" points="102.87,-111.24 92.97,-107.47 98.36,-116.59 102.87,-111.24"/>
</g>
<!-- a3955228672i0 -->
<g id="node3" class="node">
<title>a3955228672i0</title>
<ellipse fill="none" stroke="#66cd00" cx="238.44" cy="-90" rx="73.39" ry="18"/>
<text text-anchor="middle" x="238.44" y="-86.3" font-family="Times,serif" font-size="14.00">b0xebc00000</text>
</g>
<!-- a3556765712i0&#45;&gt;a3955228672i0 -->
<g id="edge2" class="edge">
<title>a3556765712i0&#45;&gt;a3955228672i0</title>
<path fill="none" stroke="black" d="M175.88,-144.41C186.5,-135.34 199.82,-123.97 211.43,-114.06"/>
<polygon fill="black" stroke="black" points="213.82,-116.62 219.15,-107.47 209.27,-111.3 213.82,-116.62"/>
</g>
<!-- k3 -->
<g id="node4" class="node">
<title>k3</title>
<polygon fill="none" stroke="#458b00" points="183.44,-36 129.44,-36 129.44,0 183.44,0 183.44,-36"/>
<text text-anchor="middle" x="156.44" y="-14.3" font-family="Times,serif" font-size="14.00">k3</text>
</g>
<!-- a3456106496i0&#45;&gt;k3 -->
<g id="edge3" class="edge">
<title>a3456106496i0&#45;&gt;k3</title>
<path fill="none" stroke="black" d="M93.11,-72.41C103.63,-63.54 116.76,-52.47 128.33,-42.71"/>
<polygon fill="black" stroke="black" points="130.66,-45.32 136.05,-36.2 126.15,-39.97 130.66,-45.32"/>
</g>
<!-- a3955228672i0&#45;&gt;k3 -->
<g id="edge4" class="edge">
<title>a3955228672i0&#45;&gt;k3</title>
<path fill="none" stroke="black" d="M219.01,-72.41C208.62,-63.54 195.65,-52.47 184.21,-42.71"/>
<polygon fill="black" stroke="black" points="186.47,-40.03 176.59,-36.2 181.93,-45.36 186.47,-40.03"/>
</g>
<!-- k502 -->
<g id="node5" class="node">
<title>k502</title>
<polygon fill="none" stroke="#458b00" points="430.44,-180 376.44,-180 376.44,-144 430.44,-144 430.44,-180"/>
<text text-anchor="middle" x="403.44" y="-158.3" font-family="Times,serif" font-size="14.00">k502</text>
</g>
<!-- a3955228672i1 -->
<g id="node6" class="node">
<title>a3955228672i1</title>
<ellipse fill="none" stroke="#66cd00" cx="403.44" cy="-90" rx="73.39" ry="18"/>
<text text-anchor="middle" x="403.44" y="-86.3" font-family="Times,serif" font-size="14.00">b0xebc00000</text>
</g>
<!-- k502&#45;&gt;a3955228672i1 -->
<g id="edge5" class="edge">
<title>k502&#45;&gt;a3955228672i1</title>
<path fill="none" stroke="black" d="M403.44,-143.7C403.44,-135.98 403.44,-126.71 403.44,-118.11"/>
<polygon fill="black" stroke="black" points="406.94,-118.1 403.44,-108.1 399.94,-118.1 406.94,-118.1"/>
</g>
<!-- a2153329968i1 -->
<g id="node7" class="node">
<title>a2153329968i1</title>
<ellipse fill="none" stroke="#00b2ee" cx="403.44" cy="-18" rx="74.99" ry="18"/>
<text text-anchor="middle" x="403.44" y="-14.3" font-family="Times,serif" font-size="14.00">b0x80593530</text>
</g>
<!-- a3955228672i1&#45;&gt;a2153329968i1 -->
<g id="edge6" class="edge">
<title>a3955228672i1&#45;&gt;a2153329968i1</title>
<path fill="none" stroke="black" d="M403.44,-71.7C403.44,-63.98 403.44,-54.71 403.44,-46.11"/>
<polygon fill="black" stroke="black" points="406.94,-46.1 403.44,-36.1 399.94,-46.1 406.94,-46.1"/>
</g>
</g>
</svg>
