<?xml version="1.0" encoding="UTF-8" standalone="no"?>
<!DOCTYPE svg PUBLIC "-//W3C//DTD SVG 1.1//EN"
 "http://www.w3.org/Graphics/SVG/1.1/DTD/svg11.dtd">
<!-- Generated by graphviz version 2.43.0 (0)
 -->
<!-- Title: streamtraces Pages: 1 -->
<svg width="491pt" height="1340pt"
 viewBox="0.00 0.00 491.49 1340.00" xmlns="http://www.w3.org/2000/svg" xmlns:xlink="http://www.w3.org/1999/xlink">
<g id="graph0" class="graph" transform="scale(1 1) rotate(0) translate(4 1336)">
<title>streamtraces</title>
<polygon fill="white" stroke="transparent" points="-4,4 -4,-1336 487.49,-1336 487.49,4 -4,4"/>
<!-- z924844032i0 -->
<g id="node1" class="node">
<title>z924844032i0</title>
<ellipse fill="none" stroke="#00b2ee" cx="157.74" cy="-1314" rx="74.99" ry="18"/>
<text text-anchor="middle" x="157.74" y="-1310.3" font-family="Times,serif" font-size="14.00">b0x37200000</text>
</g>
<!-- z926941184i1s14 -->
<g id="node2" class="node">
<title>z926941184i1s14</title>
<ellipse fill="none" stroke="#66cd00" cx="157.74" cy="-1242" rx="74.99" ry="18"/>
<text text-anchor="middle" x="157.74" y="-1238.3" font-family="Times,serif" font-size="14.00">b0x37400000</text>
</g>
<!-- z924844032i0&#45;&gt;z926941184i1s14 -->
<g id="edge1" class="edge">
<title>z924844032i0&#45;&gt;z926941184i1s14</title>
<path fill="none" stroke="black" d="M157.74,-1295.7C157.74,-1287.98 157.74,-1278.71 157.74,-1270.11"/>
<polygon fill="black" stroke="black" points="161.24,-1270.1 157.74,-1260.1 154.24,-1270.1 161.24,-1270.1"/>
</g>
<!-- k4 -->
<g id="node3" class="node">
<title>k4</title>
<polygon fill="none" stroke="#458b00" points="184.74,-1188 130.74,-1188 130.74,-1152 184.74,-1152 184.74,-1188"/>
<text text-anchor="middle" x="157.74" y="-1166.3" font-family="Times,serif" font-size="14.00">k4</text>
</g>
<!-- z926941184i1s14&#45;&gt;k4 -->
<g id="edge2" class="edge">
<title>z926941184i1s14&#45;&gt;k4</title>
<path fill="none" stroke="black" d="M157.74,-1223.7C157.74,-1215.98 157.74,-1206.71 157.74,-1198.11"/>
<polygon fill="black" stroke="black" points="161.24,-1198.1 157.74,-1188.1 154.24,-1198.1 161.24,-1198.1"/>
</g>
<!-- z926941696i1s14 -->
<g id="node4" class="node">
<title>z926941696i1s14</title>
<ellipse fill="none" stroke="#66cd00" cx="157.74" cy="-1098" rx="74.99" ry="18"/>
<text text-anchor="middle" x="157.74" y="-1094.3" font-family="Times,serif" font-size="14.00">b0x37400200</text>
</g>
<!-- k4&#45;&gt;z926941696i1s14 -->
<g id="edge3" class="edge">
<title>k4&#45;&gt;z926941696i1s14</title>
<path fill="none" stroke="black" d="M157.74,-1151.7C157.74,-1143.98 157.74,-1134.71 157.74,-1126.11"/>
<polygon fill="black" stroke="black" points="161.24,-1126.1 157.74,-1116.1 154.24,-1126.1 161.24,-1126.1"/>
</g>
<!-- z924844032i1 -->
<g id="node5" class="node">
<title>z924844032i1</title>
<ellipse fill="none" stroke="#00b2ee" cx="157.74" cy="-1026" rx="74.99" ry="18"/>
<text text-anchor="middle" x="157.74" y="-1022.3" font-family="Times,serif" font-size="14.00">b0x37200000</text>
</g>
<!-- z926941696i1s14&#45;&gt;z924844032i1 -->
<g id="edge4" class="edge">
<title>z926941696i1s14&#45;&gt;z924844032i1</title>
<path fill="none" stroke="black" d="M157.74,-1079.7C157.74,-1071.98 157.74,-1062.71 157.74,-1054.11"/>
<polygon fill="black" stroke="black" points="161.24,-1054.1 157.74,-1044.1 154.24,-1054.1 161.24,-1054.1"/>
</g>
<!-- z926942208i1s15 -->
<g id="node6" class="node">
<title>z926942208i1s15</title>
<ellipse fill="none" stroke="#66cd00" cx="74.74" cy="-954" rx="74.99" ry="18"/>
<text text-anchor="middle" x="74.74" y="-950.3" font-family="Times,serif" font-size="14.00">b0x37400400</text>
</g>
<!-- z924844032i1&#45;&gt;z926942208i1s15 -->
<g id="edge5" class="edge">
<title>z924844032i1&#45;&gt;z926942208i1s15</title>
<path fill="none" stroke="black" d="M138.07,-1008.41C127.32,-999.34 113.84,-987.97 102.08,-978.06"/>
<polygon fill="black" stroke="black" points="104.17,-975.24 94.27,-971.47 99.66,-980.59 104.17,-975.24"/>
</g>
<!-- z926942720i1s14 -->
<g id="node8" class="node">
<title>z926942720i1s14</title>
<ellipse fill="none" stroke="#66cd00" cx="241.74" cy="-954" rx="74.99" ry="18"/>
<text text-anchor="middle" x="241.74" y="-950.3" font-family="Times,serif" font-size="14.00">b0x37400600</text>
</g>
<!-- z924844032i1&#45;&gt;z926942720i1s14 -->
<g id="edge7" class="edge">
<title>z924844032i1&#45;&gt;z926942720i1s14</title>
<path fill="none" stroke="black" d="M177.65,-1008.41C188.53,-999.34 202.17,-987.97 214.07,-978.06"/>
<polygon fill="black" stroke="black" points="216.54,-980.56 221.98,-971.47 212.06,-975.18 216.54,-980.56"/>
</g>
<!-- k8 -->
<g id="node7" class="node">
<title>k8</title>
<polygon fill="none" stroke="#458b00" points="101.74,-900 47.74,-900 47.74,-864 101.74,-864 101.74,-900"/>
<text text-anchor="middle" x="74.74" y="-878.3" font-family="Times,serif" font-size="14.00">k8</text>
</g>
<!-- z926942208i1s15&#45;&gt;k8 -->
<g id="edge6" class="edge">
<title>z926942208i1s15&#45;&gt;k8</title>
<path fill="none" stroke="black" d="M74.74,-935.7C74.74,-927.98 74.74,-918.71 74.74,-910.11"/>
<polygon fill="black" stroke="black" points="78.24,-910.1 74.74,-900.1 71.24,-910.1 78.24,-910.1"/>
</g>
<!-- k11 -->
<g id="node9" class="node">
<title>k11</title>
<polygon fill="none" stroke="#458b00" points="268.74,-900 214.74,-900 214.74,-864 268.74,-864 268.74,-900"/>
<text text-anchor="middle" x="241.74" y="-878.3" font-family="Times,serif" font-size="14.00">k11</text>
</g>
<!-- z926942720i1s14&#45;&gt;k11 -->
<g id="edge8" class="edge">
<title>z926942720i1s14&#45;&gt;k11</title>
<path fill="none" stroke="black" d="M241.74,-935.7C241.74,-927.98 241.74,-918.71 241.74,-910.11"/>
<polygon fill="black" stroke="black" points="245.24,-910.1 241.74,-900.1 238.24,-910.1 245.24,-910.1"/>
</g>
<!-- z926943232i1s14 -->
<g id="node10" class="node">
<title>z926943232i1s14</title>
<ellipse fill="none" stroke="#66cd00" cx="241.74" cy="-810" rx="74.99" ry="18"/>
<text text-anchor="middle" x="241.74" y="-806.3" font-family="Times,serif" font-size="14.00">b0x37400800</text>
</g>
<!-- k11&#45;&gt;z926943232i1s14 -->
<g id="edge9" class="edge">
<title>k11&#45;&gt;z926943232i1s14</title>
<path fill="none" stroke="black" d="M241.74,-863.7C241.74,-855.98 241.74,-846.71 241.74,-838.11"/>
<polygon fill="black" stroke="black" points="245.24,-838.1 241.74,-828.1 238.24,-838.1 245.24,-838.1"/>
</g>
<!-- z924844032i2 -->
<g id="node11" class="node">
<title>z924844032i2</title>
<ellipse fill="none" stroke="#00b2ee" cx="241.74" cy="-738" rx="74.99" ry="18"/>
<text text-anchor="middle" x="241.74" y="-734.3" font-family="Times,serif" font-size="14.00">b0x37200000</text>
</g>
<!-- z926943232i1s14&#45;&gt;z924844032i2 -->
<g id="edge10" class="edge">
<title>z926943232i1s14&#45;&gt;z924844032i2</title>
<path fill="none" stroke="black" d="M241.74,-791.7C241.74,-783.98 241.74,-774.71 241.74,-766.11"/>
<polygon fill="black" stroke="black" points="245.24,-766.1 241.74,-756.1 238.24,-766.1 245.24,-766.1"/>
</g>
<!-- z926943744i1s15 -->
<g id="node12" class="node">
<title>z926943744i1s15</title>
<ellipse fill="none" stroke="#66cd00" cx="158.74" cy="-666" rx="74.19" ry="18"/>
<text text-anchor="middle" x="158.74" y="-662.3" font-family="Times,serif" font-size="14.00">b0x37400a00</text>
</g>
<!-- z924844032i2&#45;&gt;z926943744i1s15 -->
<g id="edge11" class="edge">
<title>z924844032i2&#45;&gt;z926943744i1s15</title>
<path fill="none" stroke="black" d="M222.07,-720.41C211.32,-711.34 197.84,-699.97 186.08,-690.06"/>
<polygon fill="black" stroke="black" points="188.17,-687.24 178.27,-683.47 183.66,-692.59 188.17,-687.24"/>
</g>
<!-- z926944256i1s14 -->
<g id="node14" class="node">
<title>z926944256i1s14</title>
<ellipse fill="none" stroke="#66cd00" cx="324.74" cy="-666" rx="73.39" ry="18"/>
<text text-anchor="middle" x="324.74" y="-662.3" font-family="Times,serif" font-size="14.00">b0x37400c00</text>
</g>
<!-- z924844032i2&#45;&gt;z926944256i1s14 -->
<g id="edge13" class="edge">
<title>z924844032i2&#45;&gt;z926944256i1s14</title>
<path fill="none" stroke="black" d="M261.41,-720.41C272.16,-711.34 285.65,-699.97 297.4,-690.06"/>
<polygon fill="black" stroke="black" points="299.83,-692.59 305.21,-683.47 295.31,-687.24 299.83,-692.59"/>
</g>
<!-- k15 -->
<g id="node13" class="node">
<title>k15</title>
<polygon fill="none" stroke="#458b00" points="185.74,-612 131.74,-612 131.74,-576 185.74,-576 185.74,-612"/>
<text text-anchor="middle" x="158.74" y="-590.3" font-family="Times,serif" font-size="14.00">k15</text>
</g>
<!-- z926943744i1s15&#45;&gt;k15 -->
<g id="edge12" class="edge">
<title>z926943744i1s15&#45;&gt;k15</title>
<path fill="none" stroke="black" d="M158.74,-647.7C158.74,-639.98 158.74,-630.71 158.74,-622.11"/>
<polygon fill="black" stroke="black" points="162.24,-622.1 158.74,-612.1 155.24,-622.1 162.24,-622.1"/>
</g>
<!-- k18 -->
<g id="node15" class="node">
<title>k18</title>
<polygon fill="none" stroke="#458b00" points="351.74,-612 297.74,-612 297.74,-576 351.74,-576 351.74,-612"/>
<text text-anchor="middle" x="324.74" y="-590.3" font-family="Times,serif" font-size="14.00">k18</text>
</g>
<!-- z926944256i1s14&#45;&gt;k18 -->
<g id="edge14" class="edge">
<title>z926944256i1s14&#45;&gt;k18</title>
<path fill="none" stroke="black" d="M324.74,-647.7C324.74,-639.98 324.74,-630.71 324.74,-622.11"/>
<polygon fill="black" stroke="black" points="328.24,-622.1 324.74,-612.1 321.24,-622.1 328.24,-622.1"/>
</g>
<!-- z926944768i1s14 -->
<g id="node16" class="node">
<title>z926944768i1s14</title>
<ellipse fill="none" stroke="#66cd00" cx="324.74" cy="-522" rx="74.19" ry="18"/>
<text text-anchor="middle" x="324.74" y="-518.3" font-family="Times,serif" font-size="14.00">b0x37400e00</text>
</g>
<!-- k18&#45;&gt;z926944768i1s14 -->
<g id="edge15" class="edge">
<title>k18&#45;&gt;z926944768i1s14</title>
<path fill="none" stroke="black" d="M324.74,-575.7C324.74,-567.98 324.74,-558.71 324.74,-550.11"/>
<polygon fill="black" stroke="black" points="328.24,-550.1 324.74,-540.1 321.24,-550.1 328.24,-550.1"/>
</g>
<!-- z924844032i3 -->
<g id="node17" class="node">
<title>z924844032i3</title>
<ellipse fill="none" stroke="#00b2ee" cx="324.74" cy="-450" rx="74.99" ry="18"/>
<text text-anchor="middle" x="324.74" y="-446.3" font-family="Times,serif" font-size="14.00">b0x37200000</text>
</g>
<!-- z926944768i1s14&#45;&gt;z924844032i3 -->
<g id="edge16" class="edge">
<title>z926944768i1s14&#45;&gt;z924844032i3</title>
<path fill="none" stroke="black" d="M324.74,-503.7C324.74,-495.98 324.74,-486.71 324.74,-478.11"/>
<polygon fill="black" stroke="black" points="328.24,-478.1 324.74,-468.1 321.24,-478.1 328.24,-478.1"/>
</g>
<!-- z926945280i1s15 -->
<g id="node18" class="node">
<title>z926945280i1s15</title>
<ellipse fill="none" stroke="#66cd00" cx="241.74" cy="-378" rx="74.99" ry="18"/>
<text text-anchor="middle" x="241.74" y="-374.3" font-family="Times,serif" font-size="14.00">b0x37401000</text>
</g>
<!-- z924844032i3&#45;&gt;z926945280i1s15 -->
<g id="edge17" class="edge">
<title>z924844032i3&#45;&gt;z926945280i1s15</title>
<path fill="none" stroke="black" d="M305.07,-432.41C294.32,-423.34 280.84,-411.97 269.08,-402.06"/>
<polygon fill="black" stroke="black" points="271.17,-399.24 261.27,-395.47 266.66,-404.59 271.17,-399.24"/>
</g>
<!-- z926945792i1s14 -->
<g id="node20" class="node">
<title>z926945792i1s14</title>
<ellipse fill="none" stroke="#66cd00" cx="408.74" cy="-378" rx="74.99" ry="18"/>
<text text-anchor="middle" x="408.74" y="-374.3" font-family="Times,serif" font-size="14.00">b0x37401200</text>
</g>
<!-- z924844032i3&#45;&gt;z926945792i1s14 -->
<g id="edge19" class="edge">
<title>z924844032i3&#45;&gt;z926945792i1s14</title>
<path fill="none" stroke="black" d="M344.65,-432.41C355.53,-423.34 369.17,-411.97 381.07,-402.06"/>
<polygon fill="black" stroke="black" points="383.54,-404.56 388.98,-395.47 379.06,-399.18 383.54,-404.56"/>
</g>
<!-- k22 -->
<g id="node19" class="node">
<title>k22</title>
<polygon fill="none" stroke="#458b00" points="268.74,-324 214.74,-324 214.74,-288 268.74,-288 268.74,-324"/>
<text text-anchor="middle" x="241.74" y="-302.3" font-family="Times,serif" font-size="14.00">k22</text>
</g>
<!-- z926945280i1s15&#45;&gt;k22 -->
<g id="edge18" class="edge">
<title>z926945280i1s15&#45;&gt;k22</title>
<path fill="none" stroke="black" d="M241.74,-359.7C241.74,-351.98 241.74,-342.71 241.74,-334.11"/>
<polygon fill="black" stroke="black" points="245.24,-334.1 241.74,-324.1 238.24,-334.1 245.24,-334.1"/>
</g>
<!-- k25 -->
<g id="node21" class="node">
<title>k25</title>
<polygon fill="none" stroke="#458b00" points="435.74,-324 381.74,-324 381.74,-288 435.74,-288 435.74,-324"/>
<text text-anchor="middle" x="408.74" y="-302.3" font-family="Times,serif" font-size="14.00">k25</text>
</g>
<!-- z926945792i1s14&#45;&gt;k25 -->
<g id="edge20" class="edge">
<title>z926945792i1s14&#45;&gt;k25</title>
<path fill="none" stroke="black" d="M408.74,-359.7C408.74,-351.98 408.74,-342.71 408.74,-334.11"/>
<polygon fill="black" stroke="black" points="412.24,-334.1 408.74,-324.1 405.24,-334.1 412.24,-334.1"/>
</g>
<!-- z926946304i1s14 -->
<g id="node22" class="node">
<title>z926946304i1s14</title>
<ellipse fill="none" stroke="#66cd00" cx="408.74" cy="-234" rx="74.99" ry="18"/>
<text text-anchor="middle" x="408.74" y="-230.3" font-family="Times,serif" font-size="14.00">b0x37401400</text>
</g>
<!-- k25&#45;&gt;z926946304i1s14 -->
<g id="edge21" class="edge">
<title>k25&#45;&gt;z926946304i1s14</title>
<path fill="none" stroke="black" d="M408.74,-287.7C408.74,-279.98 408.74,-270.71 408.74,-262.11"/>
<polygon fill="black" stroke="black" points="412.24,-262.1 408.74,-252.1 405.24,-262.1 412.24,-262.1"/>
</g>
<!-- z924844032i4 -->
<g id="node23" class="node">
<title>z924844032i4</title>
<ellipse fill="none" stroke="#00b2ee" cx="408.74" cy="-162" rx="74.99" ry="18"/>
<text text-anchor="middle" x="408.74" y="-158.3" font-family="Times,serif" font-size="14.00">b0x37200000</text>
</g>
<!-- z926946304i1s14&#45;&gt;z924844032i4 -->
<g id="edge22" class="edge">
<title>z926946304i1s14&#45;&gt;z924844032i4</title>
<path fill="none" stroke="black" d="M408.74,-215.7C408.74,-207.98 408.74,-198.71 408.74,-190.11"/>
<polygon fill="black" stroke="black" points="412.24,-190.1 408.74,-180.1 405.24,-190.1 412.24,-190.1"/>
</g>
<!-- z926946816i1s15 -->
<g id="node24" class="node">
<title>z926946816i1s15</title>
<ellipse fill="none" stroke="#66cd00" cx="408.74" cy="-90" rx="74.99" ry="18"/>
<text text-anchor="middle" x="408.74" y="-86.3" font-family="Times,serif" font-size="14.00">b0x37401600</text>
</g>
<!-- z924844032i4&#45;&gt;z926946816i1s15 -->
<g id="edge23" class="edge">
<title>z924844032i4&#45;&gt;z926946816i1s15</title>
<path fill="none" stroke="black" d="M408.74,-143.7C408.74,-135.98 408.74,-126.71 408.74,-118.11"/>
<polygon fill="black" stroke="black" points="412.24,-118.1 408.74,-108.1 405.24,-118.1 412.24,-118.1"/>
</g>
<!-- k29 -->
<g id="node25" class="node">
<title>k29</title>
<polygon fill="none" stroke="#458b00" points="435.74,-36 381.74,-36 381.74,0 435.74,0 435.74,-36"/>
<text text-anchor="middle" x="408.74" y="-14.3" font-family="Times,serif" font-size="14.00">k29</text>
</g>
<!-- z926946816i1s15&#45;&gt;k29 -->
<g id="edge24" class="edge">
<title>z926946816i1s15&#45;&gt;k29</title>
<path fill="none" stroke="black" d="M408.74,-71.7C408.74,-63.98 408.74,-54.71 408.74,-46.11"/>
<polygon fill="black" stroke="black" points="412.24,-46.1 408.74,-36.1 405.24,-46.1 412.24,-46.1"/>
</g>
</g>
</svg>
